<?xml version="1.0" standalone="no"?>
<!DOCTYPE svg PUBLIC "-//W3C//DTD SVG 20010904//EN"
 "http://www.w3.org/TR/2001/REC-SVG-20010904/DTD/svg10.dtd">
<svg version="1.0" xmlns="http://www.w3.org/2000/svg"
 width="260.000000pt" height="260.000000pt" viewBox="0 0 260.000000 260.000000"
 preserveAspectRatio="xMidYMid meet">
<metadata>
Created by potrace 1.11, written by Peter Selinger 2001-2013
</metadata>
<g transform="translate(0.000000,260.000000) scale(0.100000,-0.100000)"
fill="#000000" stroke="none">
<path d="M1155 2590 c-389 -44 -743 -269 -952 -602 -29 -46 -55 -91 -59 -100
-6 -17 18 -18 405 -18 l412 0 -35 30 c-57 51 -178 310 -176 379 1 26 129 -119
189 -213 40 -64 55 -99 60 -138 5 -44 10 -54 28 -56 21 -3 21 -4 -10 -72 l-32
-69 -455 -3 -455 -3 -28 -110 c-52 -199 -48 -479 10 -670 l19 -60 452 -3 452
-2 32 -68 c18 -37 34 -70 36 -74 2 -5 -5 -8 -15 -8 -14 0 -42 -39 -103 -145
-46 -80 -87 -145 -91 -145 -3 0 -11 6 -17 12 -7 10 11 49 64 141 41 71 74 131
74 133 0 2 -185 4 -411 4 l-411 0 32 -57 c123 -220 332 -419 558 -532 97 -49
256 -99 372 -117 137 -22 369 -15 486 15 289 72 523 214 699 422 61 72 175
242 175 261 0 4 -175 8 -390 8 -214 0 -390 -3 -390 -7 1 -5 34 -64 74 -133 53
-90 71 -129 64 -137 -6 -7 -14 -13 -19 -13 -4 0 -45 65 -90 145 -59 102 -88
145 -101 145 -10 0 -18 2 -18 5 0 3 16 37 35 75 l35 70 434 0 434 0 20 78 c44
166 57 306 42 457 -10 104 -36 227 -59 288 l-11 27 -432 0 -433 0 -29 63 c-17
34 -31 65 -34 70 -2 4 6 7 17 7 12 0 21 1 22 3 0 1 3 22 5 47 9 76 108 233
209 330 l47 45 -7 -35 c-24 -118 -116 -311 -171 -360 l-35 -30 391 0 c214 0
390 3 390 6 0 18 -68 130 -124 205 -188 250 -467 426 -774 488 -117 24 -297
33 -407 21z m226 -564 c42 -177 36 -390 -16 -553 -13 -40 -19 -73 -14 -73 16
0 39 -59 39 -100 0 -43 -14 -80 -36 -93 -10 -6 -8 -19 7 -62 67 -191 61 -504
-13 -670 -11 -26 -13 21 -16 341 l-2 372 -25 6 c-53 13 -76 137 -34 189 l20
26 -20 68 c-33 113 -44 208 -38 348 5 123 30 258 56 303 7 12 10 -100 11 -350
0 -320 2 -368 15 -368 13 0 15 48 15 373 1 322 3 370 15 353 8 -10 24 -59 36
-110z m-79 -1333 c2 -132 0 -239 -4 -237 -4 3 -17 35 -28 72 -55 187 -54 417
3 597 l22 70 2 -130 c2 -71 4 -239 5 -372z"/>
</g>
</svg>
